<?xml version="1.0" encoding="UTF-8" standalone="no"?>
<!DOCTYPE svg PUBLIC "-//W3C//DTD SVG 1.1//EN"
 "http://www.w3.org/Graphics/SVG/1.1/DTD/svg11.dtd">
<!-- Generated by graphviz version 2.38.0 (20140413.2041)
 -->
<!-- Title: G Pages: 1 -->
<svg width="643pt" height="769pt"
 viewBox="0.00 0.00 642.75 769.00" xmlns="http://www.w3.org/2000/svg" xmlns:xlink="http://www.w3.org/1999/xlink">
<g id="graph0" class="graph" transform="scale(1 1) rotate(0) translate(4 765)">
<title>G</title>
<polygon fill="white" stroke="none" points="-4,4 -4,-765 638.746,-765 638.746,4 -4,4"/>
<!-- _condition_0 &#160;&#160;&#160;&#160;&#160;&#160;&#160;&#160;&#160;&#160;&#160; -->
<g id="node1" class="node"><title>_condition_0 &#160;&#160;&#160;&#160;&#160;&#160;&#160;&#160;&#160;&#160;&#160;</title>
<ellipse fill="none" stroke="black" cx="217.271" cy="-743" rx="121.042" ry="18"/>
<text text-anchor="middle" x="217.271" y="-739.9" font-family="Courier New" font-size="12.00">_condition_0 &#160;&#160;&#160;&#160;&#160;&#160;&#160;&#160;&#160;&#160;&#160;</text>
</g>
<!-- _condition_6 &#160;&#160;&#160;&#160;&#160;&#160;&#160;&#160;&#160;&#160;&#160; -->
<g id="node2" class="node"><title>_condition_6 &#160;&#160;&#160;&#160;&#160;&#160;&#160;&#160;&#160;&#160;&#160;</title>
<ellipse fill="none" stroke="black" cx="121.271" cy="-199" rx="121.042" ry="18"/>
<text text-anchor="middle" x="121.271" y="-195.9" font-family="Courier New" font-size="12.00">_condition_6 &#160;&#160;&#160;&#160;&#160;&#160;&#160;&#160;&#160;&#160;&#160;</text>
</g>
<!-- _condition_0 &#160;&#160;&#160;&#160;&#160;&#160;&#160;&#160;&#160;&#160;&#160;&#45;&gt;_condition_6 &#160;&#160;&#160;&#160;&#160;&#160;&#160;&#160;&#160;&#160;&#160; -->
<g id="edge1" class="edge"><title>_condition_0 &#160;&#160;&#160;&#160;&#160;&#160;&#160;&#160;&#160;&#160;&#160;&#45;&gt;_condition_6 &#160;&#160;&#160;&#160;&#160;&#160;&#160;&#160;&#160;&#160;&#160;</title>
<path fill="none" stroke="black" d="M187.28,-725.387C165.66,-710.972 140.271,-687.894 140.271,-659 140.271,-659 140.271,-659 140.271,-283 140.271,-263.962 135.462,-243.073 130.683,-227.013"/>
<polygon fill="black" stroke="black" points="133.942,-225.71 127.597,-217.225 127.266,-227.815 133.942,-225.71"/>
<text text-anchor="middle" x="159.271" y="-461.9" font-family="Courier New" font-size="12.00">false</text>
</g>
<!-- _condition_1 &#160;&#160;&#160;&#160;&#160;&#160;&#160;&#160;&#160;&#160;&#160; -->
<g id="node3" class="node"><title>_condition_1 &#160;&#160;&#160;&#160;&#160;&#160;&#160;&#160;&#160;&#160;&#160;</title>
<ellipse fill="none" stroke="black" cx="416.271" cy="-658" rx="121.042" ry="18"/>
<text text-anchor="middle" x="416.271" y="-654.9" font-family="Courier New" font-size="12.00">_condition_1 &#160;&#160;&#160;&#160;&#160;&#160;&#160;&#160;&#160;&#160;&#160;</text>
</g>
<!-- _condition_0 &#160;&#160;&#160;&#160;&#160;&#160;&#160;&#160;&#160;&#160;&#160;&#45;&gt;_condition_1 &#160;&#160;&#160;&#160;&#160;&#160;&#160;&#160;&#160;&#160;&#160; -->
<g id="edge2" class="edge"><title>_condition_0 &#160;&#160;&#160;&#160;&#160;&#160;&#160;&#160;&#160;&#160;&#160;&#45;&gt;_condition_1 &#160;&#160;&#160;&#160;&#160;&#160;&#160;&#160;&#160;&#160;&#160;</title>
<path fill="none" stroke="black" d="M256.112,-725.8C288.163,-712.432 333.793,-693.4 368.155,-679.068"/>
<polygon fill="black" stroke="black" points="369.645,-682.239 377.527,-675.159 366.95,-675.779 369.645,-682.239"/>
<text text-anchor="middle" x="344.771" y="-697.4" font-family="Courier New" font-size="12.00">true</text>
</g>
<!-- exit_control_flow -->
<g id="node6" class="node"><title>exit_control_flow</title>
<ellipse fill="none" stroke="black" cx="316.271" cy="-18" rx="88.7893" ry="18"/>
<text text-anchor="middle" x="316.271" y="-14.9" font-family="Courier New" font-size="12.00">exit_control_flow</text>
</g>
<!-- _condition_6 &#160;&#160;&#160;&#160;&#160;&#160;&#160;&#160;&#160;&#160;&#160;&#45;&gt;exit_control_flow -->
<g id="edge19" class="edge"><title>_condition_6 &#160;&#160;&#160;&#160;&#160;&#160;&#160;&#160;&#160;&#160;&#160;&#45;&gt;exit_control_flow</title>
<path fill="none" stroke="black" d="M114.796,-181.005C106.052,-154.88 94.1578,-104.57 118.271,-73 132.965,-53.7611 187.849,-39.7315 236.115,-30.8018"/>
<polygon fill="black" stroke="black" points="236.758,-34.2424 245.981,-29.0287 235.52,-27.3527 236.758,-34.2424"/>
<text text-anchor="middle" x="133.771" y="-87.9" font-family="Courier New" font-size="12.00">true</text>
</g>
<!-- nor_tbl -->
<g id="node14" class="node"><title>nor_tbl</title>
<ellipse fill="none" stroke="black" cx="200.271" cy="-91" rx="42.451" ry="18"/>
<text text-anchor="middle" x="200.271" y="-87.9" font-family="Courier New" font-size="12.00">nor_tbl</text>
</g>
<!-- _condition_6 &#160;&#160;&#160;&#160;&#160;&#160;&#160;&#160;&#160;&#160;&#160;&#45;&gt;nor_tbl -->
<g id="edge18" class="edge"><title>_condition_6 &#160;&#160;&#160;&#160;&#160;&#160;&#160;&#160;&#160;&#160;&#160;&#45;&gt;nor_tbl</title>
<path fill="none" stroke="black" d="M133.963,-180.969C146.957,-163.534 167.279,-136.267 182.002,-116.512"/>
<polygon fill="black" stroke="black" points="184.959,-118.402 188.128,-108.292 179.346,-114.219 184.959,-118.402"/>
<text text-anchor="middle" x="192.271" y="-141.9" font-family="Courier New" font-size="12.00">false</text>
</g>
<!-- _condition_2 &#160;&#160;&#160;&#160;&#160;&#160;&#160;&#160;&#160;&#160;&#160; -->
<g id="node4" class="node"><title>_condition_2 &#160;&#160;&#160;&#160;&#160;&#160;&#160;&#160;&#160;&#160;&#160;</title>
<ellipse fill="none" stroke="black" cx="416.271" cy="-573" rx="121.042" ry="18"/>
<text text-anchor="middle" x="416.271" y="-569.9" font-family="Courier New" font-size="12.00">_condition_2 &#160;&#160;&#160;&#160;&#160;&#160;&#160;&#160;&#160;&#160;&#160;</text>
</g>
<!-- _condition_1 &#160;&#160;&#160;&#160;&#160;&#160;&#160;&#160;&#160;&#160;&#160;&#45;&gt;_condition_2 &#160;&#160;&#160;&#160;&#160;&#160;&#160;&#160;&#160;&#160;&#160; -->
<g id="edge3" class="edge"><title>_condition_1 &#160;&#160;&#160;&#160;&#160;&#160;&#160;&#160;&#160;&#160;&#160;&#45;&gt;_condition_2 &#160;&#160;&#160;&#160;&#160;&#160;&#160;&#160;&#160;&#160;&#160;</title>
<path fill="none" stroke="black" d="M416.271,-639.802C416.271,-628.674 416.271,-613.945 416.271,-601.244"/>
<polygon fill="black" stroke="black" points="419.771,-601.176 416.271,-591.176 412.771,-601.176 419.771,-601.176"/>
<text text-anchor="middle" x="435.271" y="-612.4" font-family="Courier New" font-size="12.00">false</text>
</g>
<!-- in_tbl2 -->
<g id="node5" class="node"><title>in_tbl2</title>
<ellipse fill="none" stroke="black" cx="592.271" cy="-519" rx="42.451" ry="18"/>
<text text-anchor="middle" x="592.271" y="-515.9" font-family="Courier New" font-size="12.00">in_tbl2</text>
</g>
<!-- _condition_1 &#160;&#160;&#160;&#160;&#160;&#160;&#160;&#160;&#160;&#160;&#160;&#45;&gt;in_tbl2 -->
<g id="edge4" class="edge"><title>_condition_1 &#160;&#160;&#160;&#160;&#160;&#160;&#160;&#160;&#160;&#160;&#160;&#45;&gt;in_tbl2</title>
<path fill="none" stroke="black" d="M461.051,-641.153C487.906,-630.073 521.531,-613.267 546.271,-591 560.33,-578.346 571.886,-560.454 579.898,-545.798"/>
<polygon fill="black" stroke="black" points="583.112,-547.205 584.643,-536.721 576.909,-543.962 583.112,-547.205"/>
<text text-anchor="middle" x="536.771" y="-612.4" font-family="Courier New" font-size="12.00">true</text>
</g>
<!-- _condition_3 &#160;&#160;&#160;&#160;&#160;&#160;&#160;&#160;&#160;&#160;&#160; -->
<g id="node7" class="node"><title>_condition_3 &#160;&#160;&#160;&#160;&#160;&#160;&#160;&#160;&#160;&#160;&#160;</title>
<ellipse fill="none" stroke="black" cx="335.271" cy="-465" rx="121.042" ry="18"/>
<text text-anchor="middle" x="335.271" y="-461.9" font-family="Courier New" font-size="12.00">_condition_3 &#160;&#160;&#160;&#160;&#160;&#160;&#160;&#160;&#160;&#160;&#160;</text>
</g>
<!-- _condition_2 &#160;&#160;&#160;&#160;&#160;&#160;&#160;&#160;&#160;&#160;&#160;&#45;&gt;_condition_3 &#160;&#160;&#160;&#160;&#160;&#160;&#160;&#160;&#160;&#160;&#160; -->
<g id="edge6" class="edge"><title>_condition_2 &#160;&#160;&#160;&#160;&#160;&#160;&#160;&#160;&#160;&#160;&#160;&#45;&gt;_condition_3 &#160;&#160;&#160;&#160;&#160;&#160;&#160;&#160;&#160;&#160;&#160;</title>
<path fill="none" stroke="black" d="M403.257,-554.969C390.031,-537.661 369.4,-510.663 354.332,-490.944"/>
<polygon fill="black" stroke="black" points="357.105,-488.809 348.252,-482.988 351.543,-493.059 357.105,-488.809"/>
<text text-anchor="middle" x="407.271" y="-515.9" font-family="Courier New" font-size="12.00">false</text>
</g>
<!-- record_flow1 -->
<g id="node8" class="node"><title>record_flow1</title>
<ellipse fill="none" stroke="black" cx="484.271" cy="-411" rx="65.7359" ry="18"/>
<text text-anchor="middle" x="484.271" y="-407.9" font-family="Courier New" font-size="12.00">record_flow1</text>
</g>
<!-- _condition_2 &#160;&#160;&#160;&#160;&#160;&#160;&#160;&#160;&#160;&#160;&#160;&#45;&gt;record_flow1 -->
<g id="edge7" class="edge"><title>_condition_2 &#160;&#160;&#160;&#160;&#160;&#160;&#160;&#160;&#160;&#160;&#160;&#45;&gt;record_flow1</title>
<path fill="none" stroke="black" d="M427.332,-554.886C438.232,-537.403 454.74,-509.183 465.271,-483 470.943,-468.895 475.452,-452.539 478.65,-439.084"/>
<polygon fill="black" stroke="black" points="482.136,-439.539 480.932,-429.013 475.309,-437.992 482.136,-439.539"/>
<text text-anchor="middle" x="472.771" y="-515.9" font-family="Courier New" font-size="12.00">true</text>
</g>
<!-- in_tbl2&#45;&gt;exit_control_flow -->
<g id="edge5" class="edge"><title>in_tbl2&#45;&gt;exit_control_flow</title>
<path fill="none" stroke="black" d="M600.416,-501.185C609.6,-480.644 623.271,-444.595 623.271,-412 623.271,-412 623.271,-412 623.271,-90 623.271,-46.1033 502.622,-29.3411 412.592,-22.9436"/>
<polygon fill="black" stroke="black" points="412.818,-19.451 402.604,-22.267 412.345,-26.435 412.818,-19.451"/>
</g>
<!-- _condition_3 &#160;&#160;&#160;&#160;&#160;&#160;&#160;&#160;&#160;&#160;&#160;&#45;&gt;exit_control_flow -->
<g id="edge15" class="edge"><title>_condition_3 &#160;&#160;&#160;&#160;&#160;&#160;&#160;&#160;&#160;&#160;&#160;&#45;&gt;exit_control_flow</title>
<path fill="none" stroke="black" d="M316.818,-447.195C297.601,-427.766 270.271,-393.835 270.271,-358 270.271,-358 270.271,-358 270.271,-90 270.271,-72.6506 280.065,-56.1952 290.614,-43.5028"/>
<polygon fill="black" stroke="black" points="293.504,-45.5214 297.561,-35.7338 288.286,-40.8556 293.504,-45.5214"/>
<text text-anchor="middle" x="289.271" y="-238.4" font-family="Courier New" font-size="12.00">false</text>
</g>
<!-- no_record_flow1 -->
<g id="node13" class="node"><title>no_record_flow1</title>
<ellipse fill="none" stroke="black" cx="377.271" cy="-357" rx="79.3215" ry="18"/>
<text text-anchor="middle" x="377.271" y="-353.9" font-family="Courier New" font-size="12.00">no_record_flow1</text>
</g>
<!-- _condition_3 &#160;&#160;&#160;&#160;&#160;&#160;&#160;&#160;&#160;&#160;&#160;&#45;&gt;no_record_flow1 -->
<g id="edge16" class="edge"><title>_condition_3 &#160;&#160;&#160;&#160;&#160;&#160;&#160;&#160;&#160;&#160;&#160;&#45;&gt;no_record_flow1</title>
<path fill="none" stroke="black" d="M342.019,-446.969C348.693,-430.125 359.004,-404.102 366.753,-384.544"/>
<polygon fill="black" stroke="black" points="370.11,-385.575 370.539,-374.988 363.602,-382.996 370.11,-385.575"/>
<text text-anchor="middle" x="378.771" y="-407.9" font-family="Courier New" font-size="12.00">true</text>
</g>
<!-- _condition_4 &#160;&#160;&#160;&#160;&#160;&#160;&#160;&#160;&#160;&#160;&#160; -->
<g id="node9" class="node"><title>_condition_4 &#160;&#160;&#160;&#160;&#160;&#160;&#160;&#160;&#160;&#160;&#160;</title>
<ellipse fill="none" stroke="black" cx="460.271" cy="-284" rx="121.042" ry="18"/>
<text text-anchor="middle" x="460.271" y="-280.9" font-family="Courier New" font-size="12.00">_condition_4 &#160;&#160;&#160;&#160;&#160;&#160;&#160;&#160;&#160;&#160;&#160;</text>
</g>
<!-- record_flow1&#45;&gt;_condition_4 &#160;&#160;&#160;&#160;&#160;&#160;&#160;&#160;&#160;&#160;&#160; -->
<g id="edge8" class="edge"><title>record_flow1&#45;&gt;_condition_4 &#160;&#160;&#160;&#160;&#160;&#160;&#160;&#160;&#160;&#160;&#160;</title>
<path fill="none" stroke="black" d="M480.984,-392.881C477.003,-372.146 470.246,-336.953 465.536,-312.422"/>
<polygon fill="black" stroke="black" points="468.918,-311.474 463.595,-302.313 462.043,-312.794 468.918,-311.474"/>
</g>
<!-- _condition_5 &#160;&#160;&#160;&#160;&#160;&#160;&#160;&#160;&#160;&#160;&#160; -->
<g id="node10" class="node"><title>_condition_5 &#160;&#160;&#160;&#160;&#160;&#160;&#160;&#160;&#160;&#160;&#160;</title>
<ellipse fill="none" stroke="black" cx="419.271" cy="-199" rx="121.042" ry="18"/>
<text text-anchor="middle" x="419.271" y="-195.9" font-family="Courier New" font-size="12.00">_condition_5 &#160;&#160;&#160;&#160;&#160;&#160;&#160;&#160;&#160;&#160;&#160;</text>
</g>
<!-- _condition_4 &#160;&#160;&#160;&#160;&#160;&#160;&#160;&#160;&#160;&#160;&#160;&#45;&gt;_condition_5 &#160;&#160;&#160;&#160;&#160;&#160;&#160;&#160;&#160;&#160;&#160; -->
<g id="edge9" class="edge"><title>_condition_4 &#160;&#160;&#160;&#160;&#160;&#160;&#160;&#160;&#160;&#160;&#160;&#45;&gt;_condition_5 &#160;&#160;&#160;&#160;&#160;&#160;&#160;&#160;&#160;&#160;&#160;</title>
<path fill="none" stroke="black" d="M451.775,-265.802C446.168,-254.451 438.711,-239.354 432.353,-226.484"/>
<polygon fill="black" stroke="black" points="435.322,-224.591 427.755,-217.176 429.046,-227.692 435.322,-224.591"/>
<text text-anchor="middle" x="461.271" y="-238.4" font-family="Courier New" font-size="12.00">false</text>
</g>
<!-- record_flow2 -->
<g id="node11" class="node"><title>record_flow2</title>
<ellipse fill="none" stroke="black" cx="542.271" cy="-145" rx="65.7359" ry="18"/>
<text text-anchor="middle" x="542.271" y="-141.9" font-family="Courier New" font-size="12.00">record_flow2</text>
</g>
<!-- _condition_4 &#160;&#160;&#160;&#160;&#160;&#160;&#160;&#160;&#160;&#160;&#160;&#45;&gt;record_flow2 -->
<g id="edge10" class="edge"><title>_condition_4 &#160;&#160;&#160;&#160;&#160;&#160;&#160;&#160;&#160;&#160;&#160;&#45;&gt;record_flow2</title>
<path fill="none" stroke="black" d="M496.011,-266.752C515.601,-255.751 538.113,-239.165 549.271,-217 556.061,-203.511 554.795,-186.766 551.607,-172.927"/>
<polygon fill="black" stroke="black" points="554.91,-171.734 548.896,-163.011 548.158,-173.58 554.91,-171.734"/>
<text text-anchor="middle" x="550.771" y="-238.4" font-family="Courier New" font-size="12.00">true</text>
</g>
<!-- _condition_5 &#160;&#160;&#160;&#160;&#160;&#160;&#160;&#160;&#160;&#160;&#160;&#45;&gt;exit_control_flow -->
<g id="edge12" class="edge"><title>_condition_5 &#160;&#160;&#160;&#160;&#160;&#160;&#160;&#160;&#160;&#160;&#160;&#45;&gt;exit_control_flow</title>
<path fill="none" stroke="black" d="M393.221,-181.362C371.036,-165.63 340.418,-139.869 325.271,-109 315.729,-89.5559 313.857,-64.938 314.159,-46.3659"/>
<polygon fill="black" stroke="black" points="317.663,-46.3408 314.547,-36.2144 310.668,-46.0734 317.663,-46.3408"/>
<text text-anchor="middle" x="344.271" y="-87.9" font-family="Courier New" font-size="12.00">false</text>
</g>
<!-- no_record_flow2 -->
<g id="node12" class="node"><title>no_record_flow2</title>
<ellipse fill="none" stroke="black" cx="451.271" cy="-91" rx="79.3215" ry="18"/>
<text text-anchor="middle" x="451.271" y="-87.9" font-family="Courier New" font-size="12.00">no_record_flow2</text>
</g>
<!-- _condition_5 &#160;&#160;&#160;&#160;&#160;&#160;&#160;&#160;&#160;&#160;&#160;&#45;&gt;no_record_flow2 -->
<g id="edge13" class="edge"><title>_condition_5 &#160;&#160;&#160;&#160;&#160;&#160;&#160;&#160;&#160;&#160;&#160;&#45;&gt;no_record_flow2</title>
<path fill="none" stroke="black" d="M422.525,-180.845C425.482,-166.321 430.291,-145.047 436.271,-127 437.187,-124.235 438.232,-121.385 439.335,-118.561"/>
<polygon fill="black" stroke="black" points="442.609,-119.8 443.201,-109.222 436.142,-117.123 442.609,-119.8"/>
<text text-anchor="middle" x="451.771" y="-141.9" font-family="Courier New" font-size="12.00">true</text>
</g>
<!-- record_flow2&#45;&gt;exit_control_flow -->
<g id="edge11" class="edge"><title>record_flow2&#45;&gt;exit_control_flow</title>
<path fill="none" stroke="black" d="M546.848,-126.77C549.929,-110.983 551.488,-87.8715 539.271,-73 521.626,-51.5214 456.942,-37.4125 401.752,-29.0214"/>
<polygon fill="black" stroke="black" points="401.974,-25.5164 391.571,-27.5206 400.953,-32.4416 401.974,-25.5164"/>
</g>
<!-- no_record_flow2&#45;&gt;exit_control_flow -->
<g id="edge14" class="edge"><title>no_record_flow2&#45;&gt;exit_control_flow</title>
<path fill="none" stroke="black" d="M421.31,-74.2428C401.957,-64.0648 376.568,-50.712 355.599,-39.684"/>
<polygon fill="black" stroke="black" points="357.094,-36.5158 346.615,-34.9587 353.836,-42.7112 357.094,-36.5158"/>
</g>
<!-- no_record_flow1&#45;&gt;_condition_4 &#160;&#160;&#160;&#160;&#160;&#160;&#160;&#160;&#160;&#160;&#160; -->
<g id="edge17" class="edge"><title>no_record_flow1&#45;&gt;_condition_4 &#160;&#160;&#160;&#160;&#160;&#160;&#160;&#160;&#160;&#160;&#160;</title>
<path fill="none" stroke="black" d="M396.521,-339.533C407.26,-330.346 420.821,-318.746 432.672,-308.608"/>
<polygon fill="black" stroke="black" points="435.224,-311.031 440.548,-301.871 430.674,-305.712 435.224,-311.031"/>
</g>
<!-- nor_tbl&#45;&gt;exit_control_flow -->
<g id="edge20" class="edge"><title>nor_tbl&#45;&gt;exit_control_flow</title>
<path fill="none" stroke="black" d="M222.476,-75.4125C232.702,-68.7754 245.036,-60.8836 256.271,-54 263.661,-49.4717 271.632,-44.7272 279.274,-40.2448"/>
<polygon fill="black" stroke="black" points="281.165,-43.1937 288.039,-35.132 277.638,-37.1471 281.165,-43.1937"/>
</g>
</g>
</svg>
