<?xml version="1.0" encoding="UTF-8" standalone="no"?>
<!DOCTYPE svg PUBLIC "-//W3C//DTD SVG 1.1//EN"
 "http://www.w3.org/Graphics/SVG/1.1/DTD/svg11.dtd">
<!-- Generated by graphviz version 2.38.0 (20140413.2041)
 -->
<!-- Title: G Pages: 1 -->
<svg width="695pt" height="620pt"
 viewBox="0.00 0.00 694.77 620.00" xmlns="http://www.w3.org/2000/svg" xmlns:xlink="http://www.w3.org/1999/xlink">
<g id="graph0" class="graph" transform="scale(1 1) rotate(0) translate(4 616)">
<title>G</title>
<polygon fill="white" stroke="none" points="-4,4 -4,-616 690.773,-616 690.773,4 -4,4"/>
<!-- start -->
<g id="node1" class="node"><title>start</title>
<ellipse fill="none" stroke="black" cx="402" cy="-594" rx="33.4852" ry="18"/>
<text text-anchor="middle" x="402" y="-590.9" font-family="Courier New" font-size="12.00">start</text>
</g>
<!-- eth_parse -->
<g id="node2" class="node"><title>eth_parse</title>
<ellipse fill="none" stroke="black" cx="402" cy="-522" rx="51.9195" ry="18"/>
<text text-anchor="middle" x="402" y="-518.9" font-family="Courier New" font-size="12.00">eth_parse</text>
</g>
<!-- start&#45;&gt;eth_parse -->
<g id="edge1" class="edge"><title>start&#45;&gt;eth_parse</title>
<path fill="none" stroke="black" d="M402,-575.697C402,-567.983 402,-558.712 402,-550.112"/>
<polygon fill="black" stroke="black" points="405.5,-550.104 402,-540.104 398.5,-550.104 405.5,-550.104"/>
</g>
<!-- parse_ipv4 -->
<g id="node3" class="node"><title>parse_ipv4</title>
<ellipse fill="none" stroke="black" cx="120" cy="-450" rx="56.7683" ry="18"/>
<text text-anchor="middle" x="120" y="-446.9" font-family="Courier New" font-size="12.00">parse_ipv4</text>
</g>
<!-- eth_parse&#45;&gt;parse_ipv4 -->
<g id="edge2" class="edge"><title>eth_parse&#45;&gt;parse_ipv4</title>
<path fill="none" stroke="black" d="M361.296,-510.896C311.757,-498.599 227.971,-477.801 173.322,-464.236"/>
<polygon fill="black" stroke="black" points="174.02,-460.803 163.472,-461.791 172.334,-467.597 174.02,-460.803"/>
</g>
<!-- _condition_0 &#160;&#160;&#160;&#160;&#160;&#160;&#160;&#160;&#160;&#160;&#160; -->
<g id="node4" class="node"><title>_condition_0 &#160;&#160;&#160;&#160;&#160;&#160;&#160;&#160;&#160;&#160;&#160;</title>
<polygon fill="none" stroke="black" points="250.5,-36 53.5,-36 53.5,-0 250.5,-0 250.5,-36"/>
<text text-anchor="middle" x="152" y="-14.9" font-family="Courier New" font-size="12.00">_condition_0 &#160;&#160;&#160;&#160;&#160;&#160;&#160;&#160;&#160;&#160;&#160;</text>
</g>
<!-- eth_parse&#45;&gt;_condition_0 &#160;&#160;&#160;&#160;&#160;&#160;&#160;&#160;&#160;&#160;&#160; -->
<g id="edge3" class="edge"><title>eth_parse&#45;&gt;_condition_0 &#160;&#160;&#160;&#160;&#160;&#160;&#160;&#160;&#160;&#160;&#160;</title>
<path fill="none" stroke="black" d="M452.416,-517.953C533.529,-510.025 684,-481.504 684,-379 684,-379 684,-379 684,-161 684,-120.553 695.094,-99.0243 665,-72 635.562,-45.5645 402.21,-30.3673 260.568,-23.492"/>
<polygon fill="black" stroke="black" points="260.688,-19.9939 250.532,-23.0113 260.353,-26.9858 260.688,-19.9939"/>
</g>
<!-- parse_ipv4&#45;&gt;_condition_0 &#160;&#160;&#160;&#160;&#160;&#160;&#160;&#160;&#160;&#160;&#160; -->
<g id="edge5" class="edge"><title>parse_ipv4&#45;&gt;_condition_0 &#160;&#160;&#160;&#160;&#160;&#160;&#160;&#160;&#160;&#160;&#160;</title>
<path fill="none" stroke="black" d="M93.9618,-433.869C58.6688,-411.18 0,-364.775 0,-307 0,-307 0,-307 0,-161 0,-115.41 18.1708,-103.633 51,-72 64.2314,-59.2506 81.1401,-48.7805 97.3221,-40.6124"/>
<polygon fill="black" stroke="black" points="99.2487,-43.5689 106.732,-36.0694 96.2053,-37.2651 99.2487,-43.5689"/>
</g>
<!-- parse_udp -->
<g id="node5" class="node"><title>parse_udp</title>
<ellipse fill="none" stroke="black" cx="120" cy="-378" rx="51.9195" ry="18"/>
<text text-anchor="middle" x="120" y="-374.9" font-family="Courier New" font-size="12.00">parse_udp</text>
</g>
<!-- parse_ipv4&#45;&gt;parse_udp -->
<g id="edge4" class="edge"><title>parse_ipv4&#45;&gt;parse_udp</title>
<path fill="none" stroke="black" d="M120,-431.697C120,-423.983 120,-414.712 120,-406.112"/>
<polygon fill="black" stroke="black" points="123.5,-406.104 120,-396.104 116.5,-406.104 123.5,-406.104"/>
</g>
<!-- parse_udp&#45;&gt;_condition_0 &#160;&#160;&#160;&#160;&#160;&#160;&#160;&#160;&#160;&#160;&#160; -->
<g id="edge7" class="edge"><title>parse_udp&#45;&gt;_condition_0 &#160;&#160;&#160;&#160;&#160;&#160;&#160;&#160;&#160;&#160;&#160;</title>
<path fill="none" stroke="black" d="M95.2504,-362.044C81.924,-352.727 66.3461,-339.561 57,-324 36.175,-289.326 38,-275.447 38,-235 38,-235 38,-235 38,-161 38,-109.997 83.2736,-66.8836 116.759,-41.971"/>
<polygon fill="black" stroke="black" points="118.923,-44.7258 124.984,-36.0357 114.826,-39.0495 118.923,-44.7258"/>
</g>
<!-- parse_sflow_header -->
<g id="node6" class="node"><title>parse_sflow_header</title>
<ellipse fill="none" stroke="black" cx="160" cy="-306" rx="93.6385" ry="18"/>
<text text-anchor="middle" x="160" y="-302.9" font-family="Courier New" font-size="12.00">parse_sflow_header</text>
</g>
<!-- parse_udp&#45;&gt;parse_sflow_header -->
<g id="edge6" class="edge"><title>parse_udp&#45;&gt;parse_sflow_header</title>
<path fill="none" stroke="black" d="M129.683,-360.055C134.282,-352.007 139.883,-342.205 145.014,-333.226"/>
<polygon fill="black" stroke="black" points="148.206,-334.694 150.128,-324.275 142.128,-331.221 148.206,-334.694"/>
</g>
<!-- parse_sflow_header&#45;&gt;_condition_0 &#160;&#160;&#160;&#160;&#160;&#160;&#160;&#160;&#160;&#160;&#160; -->
<g id="edge8" class="edge"><title>parse_sflow_header&#45;&gt;_condition_0 &#160;&#160;&#160;&#160;&#160;&#160;&#160;&#160;&#160;&#160;&#160;</title>
<path fill="none" stroke="black" d="M132.683,-288.664C120.242,-279.59 106.799,-267.077 100,-252 84.1888,-216.937 80.2475,-176.274 118,-72 121.48,-62.3875 126.955,-52.7254 132.502,-44.3327"/>
<polygon fill="black" stroke="black" points="135.391,-46.3091 138.229,-36.1014 129.645,-42.3112 135.391,-46.3091"/>
</g>
<!-- parse_sflow_sample_header -->
<g id="node7" class="node"><title>parse_sflow_sample_header</title>
<ellipse fill="none" stroke="black" cx="235" cy="-234" rx="125.66" ry="18"/>
<text text-anchor="middle" x="235" y="-230.9" font-family="Courier New" font-size="12.00">parse_sflow_sample_header</text>
</g>
<!-- parse_sflow_header&#45;&gt;parse_sflow_sample_header -->
<g id="edge9" class="edge"><title>parse_sflow_header&#45;&gt;parse_sflow_sample_header</title>
<path fill="none" stroke="black" d="M178.155,-288.055C187.483,-279.349 199.009,-268.591 209.239,-259.043"/>
<polygon fill="black" stroke="black" points="211.829,-261.414 216.752,-252.032 207.053,-256.296 211.829,-261.414"/>
</g>
<!-- parse_sflow_sample_header&#45;&gt;_condition_0 &#160;&#160;&#160;&#160;&#160;&#160;&#160;&#160;&#160;&#160;&#160; -->
<g id="edge12" class="edge"><title>parse_sflow_sample_header&#45;&gt;_condition_0 &#160;&#160;&#160;&#160;&#160;&#160;&#160;&#160;&#160;&#160;&#160;</title>
<path fill="none" stroke="black" d="M180.682,-217.661C162.266,-209.58 143.67,-197.569 133,-180 107.735,-138.4 125.273,-79.5361 139.316,-45.7148"/>
<polygon fill="black" stroke="black" points="142.556,-47.0386 143.327,-36.4718 136.135,-44.2515 142.556,-47.0386"/>
</g>
<!-- parse_sflow_counter -->
<g id="node8" class="node"><title>parse_sflow_counter</title>
<ellipse fill="none" stroke="black" cx="240" cy="-162" rx="97.7568" ry="18"/>
<text text-anchor="middle" x="240" y="-158.9" font-family="Courier New" font-size="12.00">parse_sflow_counter</text>
</g>
<!-- parse_sflow_sample_header&#45;&gt;parse_sflow_counter -->
<g id="edge10" class="edge"><title>parse_sflow_sample_header&#45;&gt;parse_sflow_counter</title>
<path fill="none" stroke="black" d="M236.236,-215.697C236.787,-207.983 237.449,-198.712 238.063,-190.112"/>
<polygon fill="black" stroke="black" points="241.557,-190.328 238.778,-180.104 234.575,-189.83 241.557,-190.328"/>
</g>
<!-- parse_sflow_sample -->
<g id="node9" class="node"><title>parse_sflow_sample</title>
<ellipse fill="none" stroke="black" cx="449" cy="-162" rx="93.6385" ry="18"/>
<text text-anchor="middle" x="449" y="-158.9" font-family="Courier New" font-size="12.00">parse_sflow_sample</text>
</g>
<!-- parse_sflow_sample_header&#45;&gt;parse_sflow_sample -->
<g id="edge11" class="edge"><title>parse_sflow_sample_header&#45;&gt;parse_sflow_sample</title>
<path fill="none" stroke="black" d="M283.026,-217.291C315.889,-206.541 359.545,-192.261 393.835,-181.045"/>
<polygon fill="black" stroke="black" points="395.281,-184.254 403.697,-177.819 393.104,-177.601 395.281,-184.254"/>
</g>
<!-- parse_sflow_counter&#45;&gt;_condition_0 &#160;&#160;&#160;&#160;&#160;&#160;&#160;&#160;&#160;&#160;&#160; -->
<g id="edge13" class="edge"><title>parse_sflow_counter&#45;&gt;_condition_0 &#160;&#160;&#160;&#160;&#160;&#160;&#160;&#160;&#160;&#160;&#160;</title>
<path fill="none" stroke="black" d="M210.111,-144.769C196.179,-135.721 180.595,-123.2 171,-108 159.297,-89.4602 154.699,-64.8694 152.942,-46.2349"/>
<polygon fill="black" stroke="black" points="156.417,-45.7631 152.203,-36.0423 149.435,-46.2691 156.417,-45.7631"/>
</g>
<!-- parse_sflow_counter_2 -->
<g id="node10" class="node"><title>parse_sflow_counter_2</title>
<ellipse fill="none" stroke="black" cx="287" cy="-90" rx="107.224" ry="18"/>
<text text-anchor="middle" x="287" y="-86.9" font-family="Courier New" font-size="12.00">parse_sflow_counter_2</text>
</g>
<!-- parse_sflow_counter&#45;&gt;parse_sflow_counter_2 -->
<g id="edge14" class="edge"><title>parse_sflow_counter&#45;&gt;parse_sflow_counter_2</title>
<path fill="none" stroke="black" d="M251.377,-144.055C256.895,-135.837 263.64,-125.791 269.771,-116.66"/>
<polygon fill="black" stroke="black" points="272.732,-118.529 275.401,-108.275 266.921,-114.626 272.732,-118.529"/>
</g>
<!-- parse_sflow_sample&#45;&gt;_condition_0 &#160;&#160;&#160;&#160;&#160;&#160;&#160;&#160;&#160;&#160;&#160; -->
<g id="edge15" class="edge"><title>parse_sflow_sample&#45;&gt;_condition_0 &#160;&#160;&#160;&#160;&#160;&#160;&#160;&#160;&#160;&#160;&#160;</title>
<path fill="none" stroke="black" d="M444.878,-143.682C439.089,-123.285 426.522,-89.9162 403,-72 380.356,-54.7524 317.746,-41.515 260.727,-32.5832"/>
<polygon fill="black" stroke="black" points="260.942,-29.0754 250.527,-31.021 259.882,-35.9947 260.942,-29.0754"/>
</g>
<!-- parse_sflow_sample_2 -->
<g id="node11" class="node"><title>parse_sflow_sample_2</title>
<ellipse fill="none" stroke="black" cx="553" cy="-90" rx="102.606" ry="18"/>
<text text-anchor="middle" x="553" y="-86.9" font-family="Courier New" font-size="12.00">parse_sflow_sample_2</text>
</g>
<!-- parse_sflow_sample&#45;&gt;parse_sflow_sample_2 -->
<g id="edge16" class="edge"><title>parse_sflow_sample&#45;&gt;parse_sflow_sample_2</title>
<path fill="none" stroke="black" d="M473.383,-144.588C487.235,-135.265 504.77,-123.462 519.856,-113.308"/>
<polygon fill="black" stroke="black" points="522.067,-116.039 528.409,-107.552 518.159,-110.232 522.067,-116.039"/>
</g>
<!-- parse_sflow_counter_2&#45;&gt;_condition_0 &#160;&#160;&#160;&#160;&#160;&#160;&#160;&#160;&#160;&#160;&#160; -->
<g id="edge17" class="edge"><title>parse_sflow_counter_2&#45;&gt;_condition_0 &#160;&#160;&#160;&#160;&#160;&#160;&#160;&#160;&#160;&#160;&#160;</title>
<path fill="none" stroke="black" d="M255.689,-72.7646C237.316,-63.2381 213.865,-51.0783 193.914,-40.7333"/>
<polygon fill="black" stroke="black" points="195.513,-37.62 185.025,-36.1239 192.291,-43.8343 195.513,-37.62"/>
</g>
<!-- parse_sflow_sample_2&#45;&gt;_condition_0 &#160;&#160;&#160;&#160;&#160;&#160;&#160;&#160;&#160;&#160;&#160; -->
<g id="edge18" class="edge"><title>parse_sflow_sample_2&#45;&gt;_condition_0 &#160;&#160;&#160;&#160;&#160;&#160;&#160;&#160;&#160;&#160;&#160;</title>
<path fill="none" stroke="black" d="M482.692,-76.7268C421.015,-65.9603 330.38,-50.1387 259.587,-37.7808"/>
<polygon fill="black" stroke="black" points="260.187,-34.3327 249.735,-36.0609 258.984,-41.2285 260.187,-34.3327"/>
</g>
</g>
</svg>
