<?xml version="1.0" encoding="UTF-8" standalone="no"?>
<!DOCTYPE svg PUBLIC "-//W3C//DTD SVG 1.1//EN"
 "http://www.w3.org/Graphics/SVG/1.1/DTD/svg11.dtd">
<!-- Generated by graphviz version 2.38.0 (20140413.2041)
 -->
<!-- Title: G Pages: 1 -->
<svg width="453pt" height="792pt"
 viewBox="0.00 0.00 452.95 792.00" xmlns="http://www.w3.org/2000/svg" xmlns:xlink="http://www.w3.org/1999/xlink">
<g id="graph0" class="graph" transform="scale(1 1) rotate(0) translate(4 788)">
<title>G</title>
<polygon fill="white" stroke="none" points="-4,4 -4,-788 448.951,-788 448.951,4 -4,4"/>
<!-- _condition_0 &#160;&#160;&#160;&#160;&#160;&#160;&#160;&#160;&#160;&#160;&#160; -->
<g id="node1" class="node"><title>_condition_0 &#160;&#160;&#160;&#160;&#160;&#160;&#160;&#160;&#160;&#160;&#160;</title>
<ellipse fill="none" stroke="black" cx="153.476" cy="-766" rx="121.042" ry="18"/>
<text text-anchor="middle" x="153.476" y="-762.9" font-family="Courier New" font-size="12.00">_condition_0 &#160;&#160;&#160;&#160;&#160;&#160;&#160;&#160;&#160;&#160;&#160;</text>
</g>
<!-- nor_tbl -->
<g id="node2" class="node"><title>nor_tbl</title>
<ellipse fill="none" stroke="black" cx="42.4755" cy="-627" rx="42.451" ry="18"/>
<text text-anchor="middle" x="42.4755" y="-623.9" font-family="Courier New" font-size="12.00">nor_tbl</text>
</g>
<!-- _condition_0 &#160;&#160;&#160;&#160;&#160;&#160;&#160;&#160;&#160;&#160;&#160;&#45;&gt;nor_tbl -->
<g id="edge1" class="edge"><title>_condition_0 &#160;&#160;&#160;&#160;&#160;&#160;&#160;&#160;&#160;&#160;&#160;&#45;&gt;nor_tbl</title>
<path fill="none" stroke="black" d="M139.642,-747.926C120.155,-723.874 84.5171,-679.889 62.2413,-652.396"/>
<polygon fill="black" stroke="black" points="64.8044,-649.999 55.7897,-644.433 59.3656,-654.406 64.8044,-649.999"/>
<text text-anchor="middle" x="142.476" y="-720.4" font-family="Courier New" font-size="12.00">false</text>
</g>
<!-- _condition_1 &#160;&#160;&#160;&#160;&#160;&#160;&#160;&#160;&#160;&#160;&#160; -->
<g id="node3" class="node"><title>_condition_1 &#160;&#160;&#160;&#160;&#160;&#160;&#160;&#160;&#160;&#160;&#160;</title>
<ellipse fill="none" stroke="black" cx="237.476" cy="-681" rx="121.042" ry="18"/>
<text text-anchor="middle" x="237.476" y="-677.9" font-family="Courier New" font-size="12.00">_condition_1 &#160;&#160;&#160;&#160;&#160;&#160;&#160;&#160;&#160;&#160;&#160;</text>
</g>
<!-- _condition_0 &#160;&#160;&#160;&#160;&#160;&#160;&#160;&#160;&#160;&#160;&#160;&#45;&gt;_condition_1 &#160;&#160;&#160;&#160;&#160;&#160;&#160;&#160;&#160;&#160;&#160; -->
<g id="edge2" class="edge"><title>_condition_0 &#160;&#160;&#160;&#160;&#160;&#160;&#160;&#160;&#160;&#160;&#160;&#45;&gt;_condition_1 &#160;&#160;&#160;&#160;&#160;&#160;&#160;&#160;&#160;&#160;&#160;</title>
<path fill="none" stroke="black" d="M170.88,-747.802C183.125,-735.703 199.677,-719.349 213.215,-705.971"/>
<polygon fill="black" stroke="black" points="215.727,-708.41 220.38,-698.892 210.807,-703.431 215.727,-708.41"/>
<text text-anchor="middle" x="216.976" y="-720.4" font-family="Courier New" font-size="12.00">true</text>
</g>
<!-- exit_control_flow -->
<g id="node6" class="node"><title>exit_control_flow</title>
<ellipse fill="none" stroke="black" cx="147.476" cy="-18" rx="88.7893" ry="18"/>
<text text-anchor="middle" x="147.476" y="-14.9" font-family="Courier New" font-size="12.00">exit_control_flow</text>
</g>
<!-- nor_tbl&#45;&gt;exit_control_flow -->
<g id="edge18" class="edge"><title>nor_tbl&#45;&gt;exit_control_flow</title>
<path fill="none" stroke="black" d="M37.4835,-608.91C31.8541,-588.098 23.4755,-551.783 23.4755,-520 23.4755,-520 23.4755,-520 23.4755,-90 23.4755,-61.707 48.0879,-44.5315 75.382,-34.1833"/>
<polygon fill="black" stroke="black" points="76.816,-37.3903 85.1122,-30.8007 74.5174,-30.7785 76.816,-37.3903"/>
</g>
<!-- _condition_2 &#160;&#160;&#160;&#160;&#160;&#160;&#160;&#160;&#160;&#160;&#160; -->
<g id="node4" class="node"><title>_condition_2 &#160;&#160;&#160;&#160;&#160;&#160;&#160;&#160;&#160;&#160;&#160;</title>
<ellipse fill="none" stroke="black" cx="237.476" cy="-573" rx="121.042" ry="18"/>
<text text-anchor="middle" x="237.476" y="-569.9" font-family="Courier New" font-size="12.00">_condition_2 &#160;&#160;&#160;&#160;&#160;&#160;&#160;&#160;&#160;&#160;&#160;</text>
</g>
<!-- _condition_1 &#160;&#160;&#160;&#160;&#160;&#160;&#160;&#160;&#160;&#160;&#160;&#45;&gt;_condition_2 &#160;&#160;&#160;&#160;&#160;&#160;&#160;&#160;&#160;&#160;&#160; -->
<g id="edge3" class="edge"><title>_condition_1 &#160;&#160;&#160;&#160;&#160;&#160;&#160;&#160;&#160;&#160;&#160;&#45;&gt;_condition_2 &#160;&#160;&#160;&#160;&#160;&#160;&#160;&#160;&#160;&#160;&#160;</title>
<path fill="none" stroke="black" d="M237.476,-662.969C237.476,-646.378 237.476,-620.883 237.476,-601.431"/>
<polygon fill="black" stroke="black" points="240.976,-601.341 237.476,-591.341 233.976,-601.341 240.976,-601.341"/>
<text text-anchor="middle" x="256.476" y="-623.9" font-family="Courier New" font-size="12.00">false</text>
</g>
<!-- in_tbl2 -->
<g id="node5" class="node"><title>in_tbl2</title>
<ellipse fill="none" stroke="black" cx="402.476" cy="-519" rx="42.451" ry="18"/>
<text text-anchor="middle" x="402.476" y="-515.9" font-family="Courier New" font-size="12.00">in_tbl2</text>
</g>
<!-- _condition_1 &#160;&#160;&#160;&#160;&#160;&#160;&#160;&#160;&#160;&#160;&#160;&#45;&gt;in_tbl2 -->
<g id="edge4" class="edge"><title>_condition_1 &#160;&#160;&#160;&#160;&#160;&#160;&#160;&#160;&#160;&#160;&#160;&#45;&gt;in_tbl2</title>
<path fill="none" stroke="black" d="M270.643,-663.575C299.25,-648.067 340.153,-622.517 367.476,-591 378.703,-578.048 387.299,-560.864 393.161,-546.645"/>
<polygon fill="black" stroke="black" points="396.582,-547.507 396.946,-536.918 390.058,-544.968 396.582,-547.507"/>
<text text-anchor="middle" x="363.976" y="-623.9" font-family="Courier New" font-size="12.00">true</text>
</g>
<!-- _condition_3 &#160;&#160;&#160;&#160;&#160;&#160;&#160;&#160;&#160;&#160;&#160; -->
<g id="node7" class="node"><title>_condition_3 &#160;&#160;&#160;&#160;&#160;&#160;&#160;&#160;&#160;&#160;&#160;</title>
<ellipse fill="none" stroke="black" cx="172.476" cy="-465" rx="121.042" ry="18"/>
<text text-anchor="middle" x="172.476" y="-461.9" font-family="Courier New" font-size="12.00">_condition_3 &#160;&#160;&#160;&#160;&#160;&#160;&#160;&#160;&#160;&#160;&#160;</text>
</g>
<!-- _condition_2 &#160;&#160;&#160;&#160;&#160;&#160;&#160;&#160;&#160;&#160;&#160;&#45;&gt;_condition_3 &#160;&#160;&#160;&#160;&#160;&#160;&#160;&#160;&#160;&#160;&#160; -->
<g id="edge6" class="edge"><title>_condition_2 &#160;&#160;&#160;&#160;&#160;&#160;&#160;&#160;&#160;&#160;&#160;&#45;&gt;_condition_3 &#160;&#160;&#160;&#160;&#160;&#160;&#160;&#160;&#160;&#160;&#160;</title>
<path fill="none" stroke="black" d="M227.032,-554.969C216.561,-537.893 200.305,-511.384 188.26,-491.74"/>
<polygon fill="black" stroke="black" points="191.104,-489.684 182.893,-482.988 185.137,-493.343 191.104,-489.684"/>
<text text-anchor="middle" x="234.476" y="-515.9" font-family="Courier New" font-size="12.00">false</text>
</g>
<!-- record_flow1 -->
<g id="node8" class="node"><title>record_flow1</title>
<ellipse fill="none" stroke="black" cx="318.476" cy="-411" rx="65.7359" ry="18"/>
<text text-anchor="middle" x="318.476" y="-407.9" font-family="Courier New" font-size="12.00">record_flow1</text>
</g>
<!-- _condition_2 &#160;&#160;&#160;&#160;&#160;&#160;&#160;&#160;&#160;&#160;&#160;&#45;&gt;record_flow1 -->
<g id="edge7" class="edge"><title>_condition_2 &#160;&#160;&#160;&#160;&#160;&#160;&#160;&#160;&#160;&#160;&#160;&#45;&gt;record_flow1</title>
<path fill="none" stroke="black" d="M253.264,-554.96C268.146,-537.977 289.977,-510.526 302.476,-483 308.7,-469.292 312.596,-452.964 314.983,-439.424"/>
<polygon fill="black" stroke="black" points="318.484,-439.691 316.59,-429.267 311.57,-438.597 318.484,-439.691"/>
<text text-anchor="middle" x="308.976" y="-515.9" font-family="Courier New" font-size="12.00">true</text>
</g>
<!-- in_tbl2&#45;&gt;exit_control_flow -->
<g id="edge5" class="edge"><title>in_tbl2&#45;&gt;exit_control_flow</title>
<path fill="none" stroke="black" d="M406.417,-500.847C410.861,-479.973 417.476,-443.596 417.476,-412 417.476,-412 417.476,-412 417.476,-90 417.476,-52.4274 318.446,-34.3231 240.335,-25.8871"/>
<polygon fill="black" stroke="black" points="240.26,-22.3605 229.951,-24.8084 239.536,-29.3231 240.26,-22.3605"/>
</g>
<!-- _condition_3 &#160;&#160;&#160;&#160;&#160;&#160;&#160;&#160;&#160;&#160;&#160;&#45;&gt;exit_control_flow -->
<g id="edge15" class="edge"><title>_condition_3 &#160;&#160;&#160;&#160;&#160;&#160;&#160;&#160;&#160;&#160;&#160;&#45;&gt;exit_control_flow</title>
<path fill="none" stroke="black" d="M136.13,-447.801C103.758,-430.611 61.4755,-400.101 61.4755,-358 61.4755,-358 61.4755,-358 61.4755,-90 61.4755,-67.4176 79.3276,-50.6744 98.7645,-39.1374"/>
<polygon fill="black" stroke="black" points="100.67,-42.0841 107.748,-34.2007 97.2985,-35.9494 100.67,-42.0841"/>
<text text-anchor="middle" x="80.4755" y="-238.4" font-family="Courier New" font-size="12.00">false</text>
</g>
<!-- no_record_flow1 -->
<g id="node13" class="node"><title>no_record_flow1</title>
<ellipse fill="none" stroke="black" cx="185.476" cy="-357" rx="79.3215" ry="18"/>
<text text-anchor="middle" x="185.476" y="-353.9" font-family="Courier New" font-size="12.00">no_record_flow1</text>
</g>
<!-- _condition_3 &#160;&#160;&#160;&#160;&#160;&#160;&#160;&#160;&#160;&#160;&#160;&#45;&gt;no_record_flow1 -->
<g id="edge16" class="edge"><title>_condition_3 &#160;&#160;&#160;&#160;&#160;&#160;&#160;&#160;&#160;&#160;&#160;&#45;&gt;no_record_flow1</title>
<path fill="none" stroke="black" d="M174.564,-446.969C176.599,-430.378 179.726,-404.883 182.111,-385.431"/>
<polygon fill="black" stroke="black" points="185.605,-385.692 183.349,-375.341 178.657,-384.84 185.605,-385.692"/>
<text text-anchor="middle" x="196.976" y="-407.9" font-family="Courier New" font-size="12.00">true</text>
</g>
<!-- _condition_4 &#160;&#160;&#160;&#160;&#160;&#160;&#160;&#160;&#160;&#160;&#160; -->
<g id="node9" class="node"><title>_condition_4 &#160;&#160;&#160;&#160;&#160;&#160;&#160;&#160;&#160;&#160;&#160;</title>
<ellipse fill="none" stroke="black" cx="250.476" cy="-284" rx="121.042" ry="18"/>
<text text-anchor="middle" x="250.476" y="-280.9" font-family="Courier New" font-size="12.00">_condition_4 &#160;&#160;&#160;&#160;&#160;&#160;&#160;&#160;&#160;&#160;&#160;</text>
</g>
<!-- record_flow1&#45;&gt;_condition_4 &#160;&#160;&#160;&#160;&#160;&#160;&#160;&#160;&#160;&#160;&#160; -->
<g id="edge8" class="edge"><title>record_flow1&#45;&gt;_condition_4 &#160;&#160;&#160;&#160;&#160;&#160;&#160;&#160;&#160;&#160;&#160;</title>
<path fill="none" stroke="black" d="M309.305,-393.142C297.797,-371.987 277.944,-335.494 264.518,-310.814"/>
<polygon fill="black" stroke="black" points="267.571,-309.102 259.718,-301.99 261.422,-312.447 267.571,-309.102"/>
</g>
<!-- _condition_5 &#160;&#160;&#160;&#160;&#160;&#160;&#160;&#160;&#160;&#160;&#160; -->
<g id="node10" class="node"><title>_condition_5 &#160;&#160;&#160;&#160;&#160;&#160;&#160;&#160;&#160;&#160;&#160;</title>
<ellipse fill="none" stroke="black" cx="210.476" cy="-199" rx="121.042" ry="18"/>
<text text-anchor="middle" x="210.476" y="-195.9" font-family="Courier New" font-size="12.00">_condition_5 &#160;&#160;&#160;&#160;&#160;&#160;&#160;&#160;&#160;&#160;&#160;</text>
</g>
<!-- _condition_4 &#160;&#160;&#160;&#160;&#160;&#160;&#160;&#160;&#160;&#160;&#160;&#45;&gt;_condition_5 &#160;&#160;&#160;&#160;&#160;&#160;&#160;&#160;&#160;&#160;&#160; -->
<g id="edge9" class="edge"><title>_condition_4 &#160;&#160;&#160;&#160;&#160;&#160;&#160;&#160;&#160;&#160;&#160;&#45;&gt;_condition_5 &#160;&#160;&#160;&#160;&#160;&#160;&#160;&#160;&#160;&#160;&#160;</title>
<path fill="none" stroke="black" d="M242.187,-265.802C236.717,-254.451 229.441,-239.354 223.239,-226.484"/>
<polygon fill="black" stroke="black" points="226.247,-224.665 218.753,-217.176 219.941,-227.704 226.247,-224.665"/>
<text text-anchor="middle" x="252.476" y="-238.4" font-family="Courier New" font-size="12.00">false</text>
</g>
<!-- record_flow2 -->
<g id="node11" class="node"><title>record_flow2</title>
<ellipse fill="none" stroke="black" cx="336.476" cy="-145" rx="65.7359" ry="18"/>
<text text-anchor="middle" x="336.476" y="-141.9" font-family="Courier New" font-size="12.00">record_flow2</text>
</g>
<!-- _condition_4 &#160;&#160;&#160;&#160;&#160;&#160;&#160;&#160;&#160;&#160;&#160;&#45;&gt;record_flow2 -->
<g id="edge10" class="edge"><title>_condition_4 &#160;&#160;&#160;&#160;&#160;&#160;&#160;&#160;&#160;&#160;&#160;&#45;&gt;record_flow2</title>
<path fill="none" stroke="black" d="M287.068,-266.592C306.765,-255.623 329.265,-239.123 340.476,-217 347.279,-203.573 346.695,-186.831 344.217,-172.977"/>
<polygon fill="black" stroke="black" points="347.601,-172.069 342.044,-163.049 340.763,-173.566 347.601,-172.069"/>
<text text-anchor="middle" x="342.976" y="-238.4" font-family="Courier New" font-size="12.00">true</text>
</g>
<!-- _condition_5 &#160;&#160;&#160;&#160;&#160;&#160;&#160;&#160;&#160;&#160;&#160;&#45;&gt;exit_control_flow -->
<g id="edge12" class="edge"><title>_condition_5 &#160;&#160;&#160;&#160;&#160;&#160;&#160;&#160;&#160;&#160;&#160;&#45;&gt;exit_control_flow</title>
<path fill="none" stroke="black" d="M183.225,-181.405C160.585,-165.871 129.978,-140.378 116.476,-109 107.353,-87.8 117.409,-62.946 128.434,-44.7341"/>
<polygon fill="black" stroke="black" points="131.68,-46.1632 134.192,-35.8704 125.809,-42.3502 131.68,-46.1632"/>
<text text-anchor="middle" x="135.476" y="-87.9" font-family="Courier New" font-size="12.00">false</text>
</g>
<!-- no_record_flow2 -->
<g id="node12" class="node"><title>no_record_flow2</title>
<ellipse fill="none" stroke="black" cx="242.476" cy="-91" rx="79.3215" ry="18"/>
<text text-anchor="middle" x="242.476" y="-87.9" font-family="Courier New" font-size="12.00">no_record_flow2</text>
</g>
<!-- _condition_5 &#160;&#160;&#160;&#160;&#160;&#160;&#160;&#160;&#160;&#160;&#160;&#45;&gt;no_record_flow2 -->
<g id="edge13" class="edge"><title>_condition_5 &#160;&#160;&#160;&#160;&#160;&#160;&#160;&#160;&#160;&#160;&#160;&#45;&gt;no_record_flow2</title>
<path fill="none" stroke="black" d="M214.98,-180.994C218.871,-166.562 224.754,-145.337 230.476,-127 231.336,-124.241 232.266,-121.37 233.212,-118.512"/>
<polygon fill="black" stroke="black" points="236.532,-119.622 236.425,-109.027 229.902,-117.376 236.532,-119.622"/>
<text text-anchor="middle" x="245.976" y="-141.9" font-family="Courier New" font-size="12.00">true</text>
</g>
<!-- record_flow2&#45;&gt;exit_control_flow -->
<g id="edge11" class="edge"><title>record_flow2&#45;&gt;exit_control_flow</title>
<path fill="none" stroke="black" d="M340.027,-126.809C342.231,-111.049 342.671,-87.9557 330.476,-73 308.943,-46.594 275.171,-32.6898 242.47,-25.5042"/>
<polygon fill="black" stroke="black" points="242.863,-22.0135 232.371,-23.4834 241.49,-28.8775 242.863,-22.0135"/>
</g>
<!-- no_record_flow2&#45;&gt;exit_control_flow -->
<g id="edge14" class="edge"><title>no_record_flow2&#45;&gt;exit_control_flow</title>
<path fill="none" stroke="black" d="M220.442,-73.5327C207.823,-64.1018 191.8,-52.1265 177.985,-41.8018"/>
<polygon fill="black" stroke="black" points="179.824,-38.8069 169.719,-35.6239 175.634,-44.414 179.824,-38.8069"/>
</g>
<!-- no_record_flow1&#45;&gt;_condition_4 &#160;&#160;&#160;&#160;&#160;&#160;&#160;&#160;&#160;&#160;&#160; -->
<g id="edge17" class="edge"><title>no_record_flow1&#45;&gt;_condition_4 &#160;&#160;&#160;&#160;&#160;&#160;&#160;&#160;&#160;&#160;&#160;</title>
<path fill="none" stroke="black" d="M200.88,-339.174C208.937,-330.373 218.954,-319.431 227.872,-309.69"/>
<polygon fill="black" stroke="black" points="230.559,-311.938 234.73,-302.198 225.396,-307.211 230.559,-311.938"/>
</g>
</g>
</svg>
