<?xml version="1.0" encoding="UTF-8" standalone="no"?>
<!DOCTYPE svg PUBLIC "-//W3C//DTD SVG 1.1//EN"
 "http://www.w3.org/Graphics/SVG/1.1/DTD/svg11.dtd">
<!-- Generated by graphviz version 2.38.0 (20140413.2041)
 -->
<!-- Title: G Pages: 1 -->
<svg width="407pt" height="542pt"
 viewBox="0.00 0.00 406.98 542.00" xmlns="http://www.w3.org/2000/svg" xmlns:xlink="http://www.w3.org/1999/xlink">
<g id="graph0" class="graph" transform="scale(1 1) rotate(0) translate(4 538)">
<title>G</title>
<polygon fill="white" stroke="none" points="-4,4 -4,-538 402.982,-538 402.982,4 -4,4"/>
<!-- _condition_7 &#160;&#160;&#160;&#160;&#160;&#160;&#160;&#160;&#160;&#160;&#160; -->
<g id="node1" class="node"><title>_condition_7 &#160;&#160;&#160;&#160;&#160;&#160;&#160;&#160;&#160;&#160;&#160;</title>
<ellipse fill="none" stroke="black" cx="173.711" cy="-516" rx="121.042" ry="18"/>
<text text-anchor="middle" x="173.711" y="-512.9" font-family="Courier New" font-size="12.00">_condition_7 &#160;&#160;&#160;&#160;&#160;&#160;&#160;&#160;&#160;&#160;&#160;</text>
</g>
<!-- _condition_9 &#160;&#160;&#160;&#160;&#160;&#160;&#160;&#160;&#160;&#160;&#160; -->
<g id="node2" class="node"><title>_condition_9 &#160;&#160;&#160;&#160;&#160;&#160;&#160;&#160;&#160;&#160;&#160;</title>
<ellipse fill="none" stroke="black" cx="135.711" cy="-261" rx="121.042" ry="18"/>
<text text-anchor="middle" x="135.711" y="-257.9" font-family="Courier New" font-size="12.00">_condition_9 &#160;&#160;&#160;&#160;&#160;&#160;&#160;&#160;&#160;&#160;&#160;</text>
</g>
<!-- _condition_7 &#160;&#160;&#160;&#160;&#160;&#160;&#160;&#160;&#160;&#160;&#160;&#45;&gt;_condition_9 &#160;&#160;&#160;&#160;&#160;&#160;&#160;&#160;&#160;&#160;&#160; -->
<g id="edge1" class="edge"><title>_condition_7 &#160;&#160;&#160;&#160;&#160;&#160;&#160;&#160;&#160;&#160;&#160;&#45;&gt;_condition_9 &#160;&#160;&#160;&#160;&#160;&#160;&#160;&#160;&#160;&#160;&#160;</title>
<path fill="none" stroke="black" d="M165.229,-497.821C159.212,-484.767 151.549,-466.188 147.711,-449 135.28,-393.323 134.249,-326.179 134.833,-289.402"/>
<polygon fill="black" stroke="black" points="138.34,-289.083 135.055,-279.01 131.342,-288.933 138.34,-289.083"/>
<text text-anchor="middle" x="158.711" y="-385.4" font-family="Courier New" font-size="12.00">false</text>
</g>
<!-- _condition_8 &#160;&#160;&#160;&#160;&#160;&#160;&#160;&#160;&#160;&#160;&#160; -->
<g id="node3" class="node"><title>_condition_8 &#160;&#160;&#160;&#160;&#160;&#160;&#160;&#160;&#160;&#160;&#160;</title>
<ellipse fill="none" stroke="black" cx="277.711" cy="-431" rx="121.042" ry="18"/>
<text text-anchor="middle" x="277.711" y="-427.9" font-family="Courier New" font-size="12.00">_condition_8 &#160;&#160;&#160;&#160;&#160;&#160;&#160;&#160;&#160;&#160;&#160;</text>
</g>
<!-- _condition_7 &#160;&#160;&#160;&#160;&#160;&#160;&#160;&#160;&#160;&#160;&#160;&#45;&gt;_condition_8 &#160;&#160;&#160;&#160;&#160;&#160;&#160;&#160;&#160;&#160;&#160; -->
<g id="edge2" class="edge"><title>_condition_7 &#160;&#160;&#160;&#160;&#160;&#160;&#160;&#160;&#160;&#160;&#160;&#45;&gt;_condition_8 &#160;&#160;&#160;&#160;&#160;&#160;&#160;&#160;&#160;&#160;&#160;</title>
<path fill="none" stroke="black" d="M194.757,-498.204C210.264,-485.829 231.543,-468.846 248.668,-455.179"/>
<polygon fill="black" stroke="black" points="251.064,-457.745 256.697,-448.771 246.698,-452.274 251.064,-457.745"/>
<text text-anchor="middle" x="248.211" y="-470.4" font-family="Courier New" font-size="12.00">true</text>
</g>
<!-- exit_control_flow -->
<g id="node4" class="node"><title>exit_control_flow</title>
<ellipse fill="none" stroke="black" cx="245.711" cy="-18" rx="88.7893" ry="18"/>
<text text-anchor="middle" x="245.711" y="-14.9" font-family="Courier New" font-size="12.00">exit_control_flow</text>
</g>
<!-- _condition_9 &#160;&#160;&#160;&#160;&#160;&#160;&#160;&#160;&#160;&#160;&#160;&#45;&gt;exit_control_flow -->
<g id="edge7" class="edge"><title>_condition_9 &#160;&#160;&#160;&#160;&#160;&#160;&#160;&#160;&#160;&#160;&#160;&#45;&gt;exit_control_flow</title>
<path fill="none" stroke="black" d="M86.5834,-244.44C62.8202,-234.155 36.5098,-218.039 22.7115,-194 -4.06031,-147.36 -10.5406,-115.265 22.7115,-73 39.87,-51.1905 104.406,-37.1254 159.667,-28.8351"/>
<polygon fill="black" stroke="black" points="160.47,-32.2551 169.863,-27.3537 159.464,-25.3278 160.47,-32.2551"/>
<text text-anchor="middle" x="20.7115" y="-130.4" font-family="Courier New" font-size="12.00">false</text>
</g>
<!-- _condition_10 &#160;&#160;&#160;&#160;&#160;&#160;&#160;&#160;&#160;&#160; -->
<g id="node6" class="node"><title>_condition_10 &#160;&#160;&#160;&#160;&#160;&#160;&#160;&#160;&#160;&#160;</title>
<ellipse fill="none" stroke="black" cx="152.711" cy="-176" rx="121.042" ry="18"/>
<text text-anchor="middle" x="152.711" y="-172.9" font-family="Courier New" font-size="12.00">_condition_10 &#160;&#160;&#160;&#160;&#160;&#160;&#160;&#160;&#160;&#160;</text>
</g>
<!-- _condition_9 &#160;&#160;&#160;&#160;&#160;&#160;&#160;&#160;&#160;&#160;&#160;&#45;&gt;_condition_10 &#160;&#160;&#160;&#160;&#160;&#160;&#160;&#160;&#160;&#160; -->
<g id="edge8" class="edge"><title>_condition_9 &#160;&#160;&#160;&#160;&#160;&#160;&#160;&#160;&#160;&#160;&#160;&#45;&gt;_condition_10 &#160;&#160;&#160;&#160;&#160;&#160;&#160;&#160;&#160;&#160;</title>
<path fill="none" stroke="black" d="M139.234,-242.802C141.513,-231.674 144.53,-216.945 147.131,-204.244"/>
<polygon fill="black" stroke="black" points="150.616,-204.675 149.194,-194.176 143.758,-203.27 150.616,-204.675"/>
<text text-anchor="middle" x="161.211" y="-215.4" font-family="Courier New" font-size="12.00">true</text>
</g>
<!-- _condition_8 &#160;&#160;&#160;&#160;&#160;&#160;&#160;&#160;&#160;&#160;&#160;&#45;&gt;exit_control_flow -->
<g id="edge3" class="edge"><title>_condition_8 &#160;&#160;&#160;&#160;&#160;&#160;&#160;&#160;&#160;&#160;&#160;&#45;&gt;exit_control_flow</title>
<path fill="none" stroke="black" d="M306.494,-413.495C327.644,-398.993 352.711,-375.743 352.711,-347 352.711,-347 352.711,-347 352.711,-90 352.711,-64.4142 331.207,-47.4995 307.479,-36.6235"/>
<polygon fill="black" stroke="black" points="308.532,-33.2688 297.958,-32.6054 305.81,-39.718 308.532,-33.2688"/>
<text text-anchor="middle" x="371.711" y="-215.4" font-family="Courier New" font-size="12.00">false</text>
</g>
<!-- t_do_recirculate -->
<g id="node5" class="node"><title>t_do_recirculate</title>
<ellipse fill="none" stroke="black" cx="240.711" cy="-346" rx="84.1712" ry="18"/>
<text text-anchor="middle" x="240.711" y="-342.9" font-family="Courier New" font-size="12.00">t_do_recirculate</text>
</g>
<!-- _condition_8 &#160;&#160;&#160;&#160;&#160;&#160;&#160;&#160;&#160;&#160;&#160;&#45;&gt;t_do_recirculate -->
<g id="edge4" class="edge"><title>_condition_8 &#160;&#160;&#160;&#160;&#160;&#160;&#160;&#160;&#160;&#160;&#160;&#45;&gt;t_do_recirculate</title>
<path fill="none" stroke="black" d="M270.045,-412.802C264.985,-401.451 258.255,-386.354 252.518,-373.484"/>
<polygon fill="black" stroke="black" points="255.636,-371.884 248.368,-364.176 249.243,-374.734 255.636,-371.884"/>
<text text-anchor="middle" x="277.211" y="-385.4" font-family="Courier New" font-size="12.00">true</text>
</g>
<!-- t_do_recirculate&#45;&gt;_condition_9 &#160;&#160;&#160;&#160;&#160;&#160;&#160;&#160;&#160;&#160;&#160; -->
<g id="edge6" class="edge"><title>t_do_recirculate&#45;&gt;_condition_9 &#160;&#160;&#160;&#160;&#160;&#160;&#160;&#160;&#160;&#160;&#160;</title>
<path fill="none" stroke="black" d="M219.716,-328.403C204.08,-316.044 182.53,-299.009 165.171,-285.287"/>
<polygon fill="black" stroke="black" points="167.046,-282.308 157.031,-278.853 162.705,-287.8 167.046,-282.308"/>
<text text-anchor="middle" x="221.211" y="-300.4" font-family="Courier New" font-size="12.00">default</text>
</g>
<!-- t_do_recirculate&#45;&gt;exit_control_flow -->
<g id="edge5" class="edge"><title>t_do_recirculate&#45;&gt;exit_control_flow</title>
<path fill="none" stroke="black" d="M267.149,-328.724C287.336,-314.051 311.711,-290.444 311.711,-262 311.711,-262 311.711,-262 311.711,-90 311.711,-70.2621 297.859,-53.7076 282.847,-41.5622"/>
<polygon fill="black" stroke="black" points="284.568,-38.4777 274.468,-35.2762 280.367,-44.0771 284.568,-38.4777"/>
</g>
<!-- _condition_10 &#160;&#160;&#160;&#160;&#160;&#160;&#160;&#160;&#160;&#160;&#45;&gt;exit_control_flow -->
<g id="edge9" class="edge"><title>_condition_10 &#160;&#160;&#160;&#160;&#160;&#160;&#160;&#160;&#160;&#160;&#45;&gt;exit_control_flow</title>
<path fill="none" stroke="black" d="M174.543,-158.096C188.961,-145.877 207.244,-128.198 218.711,-109 230.303,-89.5927 237.257,-64.8249 241.197,-46.1865"/>
<polygon fill="black" stroke="black" points="244.652,-46.7576 243.134,-36.272 237.782,-45.4155 244.652,-46.7576"/>
<text text-anchor="middle" x="253.711" y="-87.9" font-family="Courier New" font-size="12.00">false</text>
</g>
<!-- t_do_frecirculate -->
<g id="node7" class="node"><title>t_do_frecirculate</title>
<ellipse fill="none" stroke="black" cx="120.711" cy="-91" rx="88.7893" ry="18"/>
<text text-anchor="middle" x="120.711" y="-87.9" font-family="Courier New" font-size="12.00">t_do_frecirculate</text>
</g>
<!-- _condition_10 &#160;&#160;&#160;&#160;&#160;&#160;&#160;&#160;&#160;&#160;&#45;&gt;t_do_frecirculate -->
<g id="edge10" class="edge"><title>_condition_10 &#160;&#160;&#160;&#160;&#160;&#160;&#160;&#160;&#160;&#160;&#45;&gt;t_do_frecirculate</title>
<path fill="none" stroke="black" d="M146.081,-157.802C141.748,-146.562 135.998,-131.65 131.068,-118.863"/>
<polygon fill="black" stroke="black" points="134.196,-117.247 127.333,-109.176 127.665,-119.765 134.196,-117.247"/>
<text text-anchor="middle" x="154.211" y="-130.4" font-family="Courier New" font-size="12.00">true</text>
</g>
<!-- t_do_frecirculate&#45;&gt;exit_control_flow -->
<g id="edge11" class="edge"><title>t_do_frecirculate&#45;&gt;exit_control_flow</title>
<path fill="none" stroke="black" d="M149.076,-73.889C166.612,-63.9287 189.319,-51.0309 208.316,-40.2409"/>
<polygon fill="black" stroke="black" points="210.06,-43.2753 217.027,-35.293 206.603,-37.1886 210.06,-43.2753"/>
</g>
</g>
</svg>
